# xmcd
#
# Track frame offsets: 
#        150
#        450
#        22097
#        38171
#        50982
#        67423
#        84958
#        98160
#        113868
#        129574
#        150119
#        166379
#        187001
#        202523
#
# Disc length: 2903 seconds
#
# Revision: 0
# Processed by: cddbd v1.5.2PL0 Copyright (c) Steve Scherf et al.
# Submitted via: ExactAudioCopy v1.3
#
DISCID=b10b550e
DTITLE=Rick Derringer - The Singles A's and B's [disk 2]
DYEAR=2007
DGENRE=Blues Rock
TTITLE0=Don't Stop Loving Me
TTITLE1=Let's Make It
TTITLE2=Laeyers Guns And Money
TTITLE3=Sleepless
TTITLE4=Midnight Road
TTITLE5=Rocka Rolla
TTITLE6=Something Warm
TTITLE7=Need A Dirl
TTITLE8=Timeless
TTITLE9=Don't Ever Say Goodbye
TTITLE10=Runaway
TTITLE11=Teenage Love Affair (Live)
TTITLE12=Let The Music Play
TTITLE13=You'll Get Yours
EXTD=
EXTT0=
EXTT1=
EXTT2=
EXTT3=
EXTT4=
EXTT5=
EXTT6=
EXTT7=
EXTT8=
EXTT9=
EXTT10=
EXTT11=
EXTT12=
EXTT13=
PLAYORDER=
